<?xml version="1.0" standalone="no"?>
<!DOCTYPE svg PUBLIC "-//W3C//DTD SVG 20010904//EN"
 "http://www.w3.org/TR/2001/REC-SVG-20010904/DTD/svg10.dtd">
<svg version="1.0" xmlns="http://www.w3.org/2000/svg"
 width="150.000000pt" height="150.000000pt" viewBox="0 0 150.000000 150.000000"
 preserveAspectRatio="xMidYMid meet">
<metadata>
Created by potrace 1.11, written by Peter Selinger 2001-2013
</metadata>
<g transform="translate(0.000000,150.000000) scale(0.100000,-0.100000)"
fill="#000000" stroke="none">
<path d="M610 1384 c-36 -7 -103 -33 -150 -56 -264 -132 -402 -438 -329 -727
58 -230 256 -418 489 -467 71 -15 202 -15 269 0 181 41 351 174 430 338 125
258 80 539 -118 737 -158 158 -373 222 -591 175z m284 -86 c238 -66 400 -267
412 -510 5 -107 -10 -179 -57 -275 -207 -421 -816 -409 -1008 20 -122 271 -7
591 262 729 108 55 270 70 391 36z"/>
<path d="M479 1090 c-1 -3 -2 -157 -3 -343 l-2 -338 46 3 45 3 0 153 c0 94 4
152 10 153 62 7 338 2 345 -6 4 -5 8 -71 8 -145 0 -74 1 -141 1 -147 1 -9 17
-13 46 -13 l45 0 0 343 0 342 -45 1 c-35 1 -45 -3 -46 -15 -1 -9 -1 -76 -1
-149 l0 -132 -182 2 -181 3 1 143 c1 97 -2 142 -10 144 -31 4 -76 3 -77 -2z"/>
</g>
</svg>
